<svg xmlns="http://www.w3.org/2000/svg" viewBox="0 0 1604.14 3467.44"><defs><style>.cls-1{font-size:90.58px;fill:#262b65;font-family:ElikaGorica, Elika Gorica;}.cls-2{letter-spacing:0em;}.cls-3{letter-spacing:0em;}.cls-4{letter-spacing:0em;}.cls-5{letter-spacing:0.01em;}.cls-6{letter-spacing:0em;}.cls-7{letter-spacing:-0.03em;}.cls-8{letter-spacing:-0.01em;}.cls-9{letter-spacing:0.01em;}.cls-10{font-size:81.55px;fill:#d62326;font-family:Poppins-ExtraLight, Poppins;font-weight:200;}.cls-11{letter-spacing:0.01em;}.cls-12{letter-spacing:0em;}.cls-13{letter-spacing:0.03em;}.cls-14{letter-spacing:0.02em;}.cls-15{letter-spacing:-0.03em;}.cls-16{letter-spacing:-0.01em;}.cls-17{letter-spacing:0em;}.cls-18{letter-spacing:0.03em;}.cls-19{letter-spacing:-0.06em;}.cls-20{letter-spacing:-0.02em;}.cls-21{letter-spacing:-0.01em;}.cls-22{letter-spacing:0em;}.cls-23{letter-spacing:0em;}.cls-24{letter-spacing:-0.01em;}.cls-25{letter-spacing:-0.01em;}.cls-26{letter-spacing:-0.03em;}.cls-27{letter-spacing:0.01em;}.cls-28{letter-spacing:0.02em;}.cls-29{letter-spacing:0em;}.cls-30{letter-spacing:-0.03em;}.cls-31{letter-spacing:0.01em;}.cls-32{letter-spacing:-0.02em;}.cls-33{letter-spacing:0.02em;}.cls-34{letter-spacing:0.04em;}.cls-35{letter-spacing:0.01em;}.cls-36{letter-spacing:0.01em;}.cls-37{letter-spacing:0em;}.cls-38{letter-spacing:0em;}.cls-39{letter-spacing:0em;}.cls-40{letter-spacing:0em;}.cls-41{letter-spacing:0.04em;}.cls-42{letter-spacing:0.02em;}.cls-43{letter-spacing:0.03em;}.cls-44{letter-spacing:0.02em;}.cls-45{letter-spacing:0.01em;}.cls-46{letter-spacing:0.03em;}.cls-47{letter-spacing:0.02em;}.cls-48{letter-spacing:0em;}.cls-49{letter-spacing:0.03em;}.cls-50{letter-spacing:-0.05em;}.cls-51{letter-spacing:0.01em;}.cls-52{letter-spacing:0em;}.cls-53{letter-spacing:0.02em;}.cls-54{letter-spacing:0.05em;}.cls-55{letter-spacing:0em;}.cls-56{letter-spacing:0.01em;}.cls-57{letter-spacing:-0.05em;}.cls-58{letter-spacing:0.02em;}.cls-59{letter-spacing:0.03em;}.cls-60{letter-spacing:0.01em;}.cls-61{letter-spacing:0.02em;}.cls-62{letter-spacing:-0.01em;}.cls-63{letter-spacing:0.04em;}.cls-64{letter-spacing:-0.02em;}.cls-65{letter-spacing:0em;}.cls-66{letter-spacing:0.01em;}.cls-67{letter-spacing:-0.01em;}.cls-68{letter-spacing:0.01em;}.cls-69{letter-spacing:0em;}.cls-70{letter-spacing:0em;}.cls-71{letter-spacing:-0.01em;}.cls-72{letter-spacing:-0.04em;}.cls-73{letter-spacing:-0.02em;}.cls-74{letter-spacing:0.01em;}.cls-75{letter-spacing:0em;}.cls-76{letter-spacing:0.03em;}.cls-77{letter-spacing:0.01em;}.cls-78{letter-spacing:-0.05em;}.cls-79{letter-spacing:0.01em;}.cls-80{fill:none;stroke:#000;stroke-miterlimit:10;stroke-width:3px;}.cls-81{letter-spacing:-0.05em;}.cls-82{letter-spacing:-0.01em;}.cls-83{letter-spacing:-0.03em;}.cls-84{letter-spacing:0em;}.cls-85{letter-spacing:-0.04em;}</style></defs><g id="Layer_2" data-name="Layer 2"><g id="Layer_1-2" data-name="Layer 1"><text class="cls-1" transform="translate(89.26 538.16)"><tspan class="cls-2">L</tspan><tspan class="cls-3" x="51" y="0">i</tspan><tspan class="cls-4" x="81.52" y="0">s</tspan><tspan class="cls-5" x="121.47" y="0">l</tspan><tspan x="147.47" y="0">e C</tspan><tspan class="cls-6" x="274.73" y="0">h</tspan><tspan class="cls-7" x="330.35" y="0">a</tspan><tspan x="373.29" y="0">c</tspan><tspan class="cls-8" x="421.75" y="0">h</tspan><tspan x="476.1" y="0">e</tspan><tspan class="cls-9" x="524.65" y="0">r</tspan><tspan x="562.61" y="0">e</tspan></text><text class="cls-10" transform="translate(184.39 665.22)">1796 - 1860</text><text class="cls-1" transform="translate(788.96 538.16)"><tspan class="cls-11">E</tspan><tspan class="cls-12" x="53.35" y="0">m</tspan><tspan x="137.05" y="0">e</tspan><tspan class="cls-13" x="185.6" y="0">r</tspan><tspan class="cls-14" x="225.1" y="0">a</tspan><tspan class="cls-15" x="272.11" y="0">n</tspan><tspan class="cls-12" x="324.28" y="0">t</tspan><tspan class="cls-16" x="357.8" y="0">h</tspan><tspan class="cls-17" x="412.15" y="0">e </tspan><tspan class="cls-18" x="479" y="0">D</tspan><tspan class="cls-19" x="545.76" y="0">a</tspan><tspan class="cls-20" x="585.34" y="0">v</tspan><tspan class="cls-21" x="642.77" y="0">i</tspan><tspan x="672.58" y="0">d</tspan></text><text class="cls-10" transform="translate(1131.65 665.22)">?</text><text class="cls-1" transform="translate(4.26 999.32)">R<tspan class="cls-22" x="62.05" y="0">u</tspan><tspan class="cls-23" x="115.31" y="0">d</tspan><tspan x="168.21" y="0">o</tspan><tspan class="cls-16" x="217.49" y="0">l</tspan><tspan class="cls-24" x="241.67" y="0">p</tspan><tspan class="cls-25" x="297.83" y="0">h</tspan><tspan x="352.19" y="0">e C</tspan><tspan class="cls-6" x="479.45" y="0">h</tspan><tspan class="cls-26" x="535.07" y="0">a</tspan><tspan x="578.01" y="0">c</tspan><tspan class="cls-16" x="626.47" y="0">h</tspan><tspan x="680.82" y="0">e</tspan><tspan class="cls-9" x="729.37" y="0">r</tspan><tspan class="cls-17" x="767.33" y="0">e</tspan></text><text class="cls-10" transform="translate(205.01 1126.38)">1825 - 1874</text><text class="cls-1" transform="translate(910.28 999.32)"><tspan class="cls-2">L</tspan><tspan class="cls-27" x="51" y="0">o</tspan><tspan x="100.82" y="0">u</tspan><tspan class="cls-12" x="153.72" y="0">i</tspan><tspan class="cls-28" x="184.24" y="0">s</tspan><tspan x="225.91" y="0">e C</tspan><tspan class="cls-29" x="353.18" y="0">h</tspan><tspan class="cls-30" x="408.8" y="0">a</tspan><tspan x="451.73" y="0">c</tspan><tspan class="cls-25" x="500.19" y="0">h</tspan><tspan class="cls-17" x="554.54" y="0">e</tspan><tspan class="cls-31" x="603.1" y="0">r</tspan><tspan x="641.05" y="0">e</tspan></text><text class="cls-10" transform="translate(1234.82 1126.38)">?</text><text class="cls-1" transform="translate(4.26 1460.48)"><tspan class="cls-32">M</tspan><tspan class="cls-33" x="74.28" y="0">o</tspan><tspan class="cls-34" x="125.46" y="0">z</tspan><tspan class="cls-35" x="167.76" y="0">a</tspan><tspan class="cls-36" x="214.14" y="0">r</tspan><tspan class="cls-37" x="251.82" y="0">t C</tspan><tspan class="cls-6" x="364.14" y="0">h</tspan><tspan class="cls-26" x="419.75" y="0">a</tspan><tspan class="cls-38" x="462.69" y="0">c</tspan><tspan class="cls-8" x="511.15" y="0">h</tspan><tspan x="565.5" y="0">e</tspan><tspan class="cls-31" x="614.06" y="0">r</tspan><tspan class="cls-38" x="652.01" y="0">e</tspan></text><text class="cls-10" transform="translate(155.75 1587.54)">1864 - 1901</text><text class="cls-1" transform="translate(932.21 1460.48)"><tspan class="cls-39">A</tspan><tspan class="cls-16" x="76.81" y="0">n</tspan><tspan class="cls-40" x="130.53" y="0">g</tspan><tspan x="182.43" y="0">e</tspan><tspan class="cls-41" x="230.98" y="0">l</tspan><tspan x="259.7" y="0">a </tspan><tspan class="cls-42" x="323.29" y="0">B</tspan><tspan class="cls-17" x="383.52" y="0">e</tspan><tspan class="cls-43" x="432.07" y="0">r</tspan><tspan class="cls-44" x="471.93" y="0">n</tspan><tspan class="cls-45" x="528.27" y="0">a</tspan><tspan class="cls-46" x="574.65" y="0">r</tspan><tspan x="614.32" y="0">d</tspan></text><text class="cls-10" transform="translate(1245.78 1587.54)">?</text><text class="cls-1" transform="translate(51.76 1921.64)"><tspan class="cls-39">A</tspan><tspan class="cls-47" x="76.81" y="0">l</tspan><tspan class="cls-5" x="104.17" y="0">l</tspan><tspan class="cls-48" x="130.16" y="0">e</tspan><tspan x="178.99" y="0" xml:space="preserve">n  V. C</tspan><tspan class="cls-6" x="437.33" y="0">h</tspan><tspan class="cls-7" x="492.94" y="0">a</tspan><tspan x="535.88" y="0">c</tspan><tspan class="cls-8" x="584.34" y="0">h</tspan><tspan class="cls-38" x="638.69" y="0">e</tspan><tspan class="cls-31" x="687.24" y="0">r</tspan><tspan x="725.2" y="0">e</tspan></text><text class="cls-10" transform="translate(239.85 2048.7)">1903 - 1974</text><text class="cls-1" transform="translate(996.66 1921.64)"><tspan class="cls-49">M</tspan><tspan class="cls-50" x="79.71" y="0">a</tspan><tspan class="cls-51" x="120.84" y="0">t</tspan><tspan class="cls-52" x="154.98" y="0">i</tspan><tspan class="cls-53" x="185.51" y="0">l</tspan><tspan class="cls-54" x="212.32" y="0">d</tspan><tspan class="cls-55" x="269.93" y="0">a R</tspan><tspan class="cls-12" x="395.57" y="0">i</tspan><tspan class="cls-56" x="426.1" y="0">l</tspan><tspan class="cls-57" x="452.09" y="0">e</tspan><tspan x="496.39" y="0">y</tspan></text><text class="cls-10" transform="translate(1065.05 2048.7)">1904 - 1967</text><text class="cls-1" transform="translate(110.26 2382.8)"><tspan class="cls-58">G</tspan><tspan x="64.4" y="0">e</tspan><tspan class="cls-59" x="112.96" y="0">r</tspan><tspan class="cls-60" x="152.45" y="0">a</tspan><tspan class="cls-61" x="198.55" y="0">l</tspan><tspan x="225.37" y="0">d C</tspan><tspan class="cls-6" x="357.43" y="0">h</tspan><tspan class="cls-26" x="413.05" y="0">a</tspan><tspan x="455.99" y="0">c</tspan><tspan class="cls-16" x="504.45" y="0">h</tspan><tspan x="558.8" y="0">e</tspan><tspan class="cls-31" x="607.35" y="0">r</tspan><tspan class="cls-38" x="645.31" y="0">e</tspan></text><text class="cls-10" transform="translate(327.6 2509.86)">b. 1940</text><text class="cls-1" transform="translate(936.44 2382.8)">P<tspan class="cls-62" x="59.42" y="0">a</tspan><tspan class="cls-61" x="103.45" y="0">u</tspan><tspan class="cls-63" x="157.89" y="0">l</tspan><tspan x="186.6" y="0">a </tspan><tspan class="cls-64" x="250.19" y="0">M</tspan><tspan class="cls-65" x="324.47" y="0">o</tspan><tspan class="cls-31" x="373.38" y="0">r</tspan><tspan class="cls-66" x="411.33" y="0">e</tspan><tspan class="cls-67" x="460.52" y="0">a</tspan><tspan x="504.54" y="0">u</tspan></text><text class="cls-10" transform="translate(1099.56 2509.86)">b. 1941</text><text class="cls-1" transform="translate(110.26 2843.96)"><tspan class="cls-24">P</tspan><tspan class="cls-32" x="58.52" y="0">h</tspan><tspan class="cls-3" x="111.69" y="0">y</tspan><tspan class="cls-47" x="170.93" y="0">l</tspan><tspan class="cls-2" x="198.29" y="0">l</tspan><tspan class="cls-3" x="223.65" y="0">i</tspan><tspan class="cls-38" x="254.17" y="0">s C</tspan><tspan class="cls-29" x="372.75" y="0">h</tspan><tspan class="cls-7" x="428.36" y="0">a</tspan><tspan x="471.3" y="0">c</tspan><tspan class="cls-8" x="519.76" y="0">h</tspan><tspan class="cls-38" x="574.11" y="0">e</tspan><tspan class="cls-31" x="622.66" y="0">r</tspan><tspan x="660.62" y="0">e</tspan></text><text class="cls-10" transform="translate(333.99 2971.02)">b. 1965</text><text class="cls-1" transform="translate(947.5 2843.96)"><tspan class="cls-68">D</tspan><tspan class="cls-69" x="64.85" y="0">e</tspan><tspan class="cls-70" x="113.68" y="0">n</tspan><tspan class="cls-71" x="168.93" y="0">n</tspan><tspan class="cls-12" x="223.01" y="0">i</tspan><tspan x="253.54" y="0">s </tspan><tspan class="cls-2" x="311.69" y="0">L</tspan><tspan class="cls-72" x="362.69" y="0">o</tspan><tspan class="cls-73" x="408.43" y="0">w</tspan><tspan class="cls-17" x="497.84" y="0">e</tspan></text><text class="cls-10" transform="translate(1089.88 2971.02)">b. 1959</text></g><g id="Layer_7" data-name="Layer 7"><text class="cls-1" transform="translate(0 76.99)"><tspan class="cls-2">L</tspan><tspan class="cls-74" x="51" y="0">o</tspan><tspan x="100.82" y="0">u</tspan><tspan class="cls-12" x="153.72" y="0">i</tspan><tspan x="184.24" y="0">s C</tspan><tspan class="cls-75" x="302.81" y="0">h</tspan><tspan class="cls-7" x="358.43" y="0">a</tspan><tspan x="401.37" y="0">c</tspan><tspan class="cls-16" x="449.83" y="0">h</tspan><tspan x="504.18" y="0">e</tspan><tspan class="cls-31" x="552.73" y="0">r</tspan><tspan class="cls-38" x="590.69" y="0">e</tspan></text><text class="cls-10" transform="translate(115.45 204.05)">1760 - 1827</text><text class="cls-1" transform="translate(769.42 76.99)"><tspan class="cls-76">C</tspan><tspan class="cls-50" x="62.86" y="0">a</tspan><tspan class="cls-12" x="103.99" y="0">t</tspan><tspan class="cls-25" x="137.5" y="0">h</tspan><tspan x="191.85" y="0">e</tspan><tspan class="cls-75" x="240.41" y="0">r</tspan><tspan class="cls-77" x="277.64" y="0">i</tspan><tspan class="cls-25" x="308.8" y="0">n</tspan><tspan x="362.51" y="0">e </tspan><tspan class="cls-78" x="429.36" y="0">V</tspan><tspan class="cls-62" x="499.83" y="0">a</tspan><tspan class="cls-2" x="543.86" y="0">u</tspan><tspan x="596.85" y="0">c</tspan><tspan class="cls-25" x="645.31" y="0">h</tspan><tspan x="699.66" y="0">e</tspan><tspan class="cls-79" x="748.21" y="0">r</tspan><tspan x="786.17" y="0">e</tspan></text><text class="cls-10" transform="translate(975.14 204.05)">1764 - 1825</text><polyline class="cls-80" points="620.38 248.77 620.38 291.45 983.77 291.45 983.77 248.77"/><line class="cls-80" x1="802.07" y1="291.45" x2="802.07" y2="461.55"/><polyline class="cls-80" points="620.38 709.93 620.38 752.61 983.77 752.61 983.77 709.93"/><line class="cls-80" x1="802.07" y1="752.61" x2="802.07" y2="922.71"/><polyline class="cls-80" points="620.38 1171.09 620.38 1213.77 983.77 1213.77 983.77 1171.09"/><line class="cls-80" x1="802.07" y1="1213.77" x2="802.07" y2="1383.87"/><polyline class="cls-80" points="620.38 1632.25 620.38 1674.93 983.77 1674.93 983.77 1632.25"/><line class="cls-80" x1="802.07" y1="1674.93" x2="802.07" y2="1845.03"/><polyline class="cls-80" points="620.38 2093.41 620.38 2136.09 983.77 2136.09 983.77 2093.41"/><line class="cls-80" x1="802.07" y1="2136.09" x2="802.07" y2="2306.19"/><polyline class="cls-80" points="620.38 2554.58 620.38 2597.25 983.77 2597.25 983.77 2554.58"/><line class="cls-80" x1="802.07" y1="2597.25" x2="802.07" y2="2767.35"/><polyline class="cls-80" points="620.38 3015.74 620.38 3058.41 983.77 3058.41 983.77 3015.74"/><line class="cls-80" x1="802.07" y1="3058.42" x2="802.07" y2="3228.51"/></g><g id="Layer_11" data-name="Layer 11"><text class="cls-1" transform="translate(335.3 3305.12)"><tspan class="cls-81">V</tspan><tspan class="cls-82" x="70.56" y="0">i</tspan><tspan class="cls-38" x="99.82" y="0">c</tspan><tspan class="cls-83" x="148.28" y="0">t</tspan><tspan class="cls-84" x="179.44" y="0">o</tspan><tspan class="cls-38" x="228.36" y="0">r C</tspan><tspan class="cls-29" x="344.12" y="0">h</tspan><tspan class="cls-7" x="399.74" y="0">a</tspan><tspan x="442.68" y="0">c</tspan><tspan class="cls-8" x="491.14" y="0">h</tspan><tspan class="cls-38" x="545.49" y="0">e</tspan><tspan class="cls-31" x="594.04" y="0">r</tspan><tspan x="631.99" y="0">e </tspan><tspan class="cls-2" x="698.84" y="0">L</tspan><tspan class="cls-85" x="749.84" y="0">o</tspan><tspan class="cls-73" x="795.58" y="0">w</tspan><tspan class="cls-17" x="884.99" y="0">e</tspan></text><text class="cls-10" transform="translate(670.61 3422.34)">b. 1996</text></g></g></svg>